<svg xmlns="http://www.w3.org/2000/svg" viewBox="0 0 108 100"><path fill="#ffffff" d="M102.14,92.61c-.38-3.42-4.3-3.54-7.05-3.39-6.24.16-19.55.52-25.66.67-.51.04-1,.03-1.48,0-.85-.57-2.35-1.48-4.96-2.99-3.36-1.95-4.47-2.54-4.42-3.3.09-1.34,3.73-2.04,4.26-2.2,14.92-4.32,24.81-19.5,25.09-34.68.58-4.01,3.17-6.09,6.66-8.18,9.33-5.73,7.47-8.79-.16-14.85-4.06-3.66-7.71-7.87-13.41-8.09-7.07-.57-16.44,4.92-15.68,12.73.4,2.1,2.4,2.94,4.03,1.52,1.69-1.26,3.07-3.93,5.21-5.43,3.73-2.9,9.84-1.8,11.46,2.91,1.31,3.31.53,7.14-1.51,9.85-1.38,1.85-3.07,3.54-3.72,5.77-.81,2.39-.48,5.38-.94,8.37-1.25,7.07-5.37,13.86-11.05,18.32-9.15,6.88-20.98,6.94-32.1,7.24-4.85-.25-6.45,1.23-9.74,4.67-4.08,2.95-8.96,5.01-13.31,7.59-2.46,1.28-6.99,3.85-5.06.86,4.01-4.93,10.12-9.78,15.13-13.18,3.95-2.94,7.77-5.6,12.42-7.46,1.68-.78,4.23-2.17,4.53-3.98.23-1.45-1.4-2-2.62-1.95-3.04.01-6.96,2.27-10.3,3.07-10.63,2.14,15.08-18.81,16.97-20.04,4.23-3.22,8.59-6.42,13.17-8.72,1.69-.91,6.35-3.15,3.89-5.2-5.9-3.32-22.02,11.42-26.6,15.02-1.92,1.64-3.69,3.22-5.51,4.96-3.3,3.32-7.21,6.52-9.44,10.64-1.93,3.56-.6,7.53-3.07,10.59-3.98,3.85-8.78,6.83-12.76,11.3-1.79,1.96-3.63,4.18-4.27,6.78-1.38,6.78,6.64,7.99,11.5,5.8,6.3-2.71,13.15-7.36,18.79-10.69,3.62-2.5,8.42-3.94,12.76-2.94,3.71.63,7.75,2.96,11.11,5.04.31.19.59.4.83.62-.14.29-.48.51-1.13.62-3.57.96-13.93-.54-15.82,3.02-.78,4.68,8.82,3.3,13.06,3.62,2.03.03,4.21.04,6.2.07,2.56.05,4.65.26,6.78,1.21,2.04.83,4.53,2.87,6.4,1.44.58-.51.96-1.25,1.56-1.77.83-.73,1.93-.79,3.07-.86,3.85-.08,10.9-.07,16.2-.11,4.98-.23,10.67,1,10.65-4.19v-.1Z"></path></svg>