<?xml version="1.0"?><svg fill="#ffffff" id="Layer_2" xmlns="http://www.w3.org/2000/svg" viewBox="0 0 250.53 58.49"><defs></defs><g id="Layer_5"><path class="cls-1" d="M81.51,1.58h15.42c12.42,0,19.85,6.17,19.85,16.84s-7.75,16.77-19.85,16.77h-8.15v20.56h-7.28V1.58ZM109.27,18.43c0-6.48-4.35-10.28-12.1-10.28h-8.38v20.4h8.38c7.75,0,12.1-3.64,12.1-10.12Z"></path><path class="cls-1" d="M153.72,37.88c0,.79-.08,1.5-.24,2.21h-28.31c.87,6.25,5.62,10.52,12.1,10.52,3.72,0,7.04-1.19,9.81-4.03l4.19,4.35c-3.8,3.88-8.46,5.62-13.84,5.62-10.99,0-18.9-7.99-18.9-18.59s7.75-18.59,17.95-18.59,17.24,7.99,17.24,18.51ZM125.25,35.11h21.75c-.87-5.77-4.9-9.88-10.68-9.88s-9.96,4.03-11.07,9.88Z"></path><path class="cls-1" d="M166.62,25.62c2.85-3.88,6.96-6.25,11.23-6.25,1.03,0,2.06.16,2.85.4l-1.66,7.51c-.79-.24-1.74-.32-2.45-.32-3.88,0-7.35,1.58-9.96,5.54v23.25h-7.12V20.17h6.09l1.03,5.46Z"></path><path class="cls-1" d="M209.01,45.95l4.51,4.67c-3.88,4.03-8.38,5.93-13.76,5.93-10.68,0-18.67-7.91-18.67-18.59s7.99-18.59,18.67-18.59c4.82,0,9.33,1.82,12.97,5.22l-4.51,4.74c-2.45-2.21-5.3-3.4-8.46-3.4-6.56,0-11.39,5.14-11.39,12.02s4.82,12.02,11.39,12.02c3.48,0,6.56-1.35,9.25-4.03Z"></path><path class="cls-1" d="M218.11,0h7.12v25.62c2.93-3.88,7.28-6.25,11.71-6.25,8.62,0,13.6,5.85,13.6,15.5v20.88h-7.12v-20.01c0-6.01-3.08-9.81-8.23-9.81-3.56,0-7.28,2.21-9.96,6.64v23.17h-7.12V0Z"></path><path class="cls-1" d="M69.27,53.39c-.26-2.32-2.92-2.4-4.78-2.3-4.23.11-13.26.35-17.4.46-.34.02-.68.02-1,0-.58-.39-1.6-1-3.36-2.03-2.28-1.32-3.03-1.72-2.99-2.24.06-.91,2.53-1.38,2.89-1.49,10.12-2.93,16.82-13.23,17.02-23.52.39-2.72,2.15-4.13,4.52-5.55,6.33-3.89,5.06-5.96-.11-10.07-2.75-2.48-5.23-5.34-9.09-5.49-4.79-.39-11.15,3.33-10.63,8.63.27,1.43,1.63,1.99,2.73,1.03,1.15-.85,2.08-2.67,3.53-3.68,2.53-1.96,6.67-1.22,7.77,1.97.89,2.24.36,4.84-1.02,6.68-.94,1.25-2.08,2.4-2.52,3.91-.55,1.62-.32,3.65-.63,5.68-.85,4.8-3.64,9.4-7.49,12.42-6.21,4.67-14.23,4.71-21.77,4.91-3.29-.17-4.38.83-6.6,3.17-2.77,2-6.08,3.4-9.03,5.15-1.67.87-4.74,2.61-3.43.59,2.72-3.35,6.86-6.63,10.26-8.94,2.68-1.99,5.27-3.8,8.42-5.06,1.14-.53,2.87-1.47,3.07-2.7.15-.98-.95-1.36-1.78-1.32-2.06,0-4.72,1.54-6.98,2.08-7.21,1.45,10.23-12.76,11.51-13.59,2.87-2.19,5.82-4.36,8.93-5.91,1.15-.62,4.31-2.14,2.64-3.53-4-2.25-14.93,7.74-18.04,10.18-1.3,1.11-2.5,2.19-3.73,3.36-2.24,2.25-4.89,4.42-6.4,7.21-1.31,2.42-.41,5.11-2.08,7.18-2.7,2.61-5.96,4.63-8.66,7.66-1.22,1.33-2.46,2.84-2.89,4.6-.94,4.6,4.5,5.42,7.8,3.93,4.27-1.84,8.92-4.99,12.74-7.25,2.46-1.69,5.71-2.67,8.65-1.99,2.52.43,5.25,2.01,7.53,3.42.21.13.4.27.57.42-.1.2-.33.35-.77.42-2.42.65-9.45-.37-10.73,2.05-.53,3.18,5.98,2.24,8.86,2.46,1.38.02,2.86.03,4.21.05,1.74.03,3.15.18,4.6.82,1.38.56,3.07,1.95,4.34.97.4-.35.65-.85,1.06-1.2.56-.5,1.31-.54,2.08-.58,2.61-.05,7.39-.05,10.99-.08,3.38-.16,7.23.68,7.23-2.84v-.07Z"></path></g></svg>